<svg width="40" height="40" viewBox="0 0 40 40" fill="none" xmlns="http://www.w3.org/2000/svg">
<mask id="path-1-inside-1_0_519" fill="white">
<path d="M40 20C40 31.0457 31.0457 40 20 40C8.9543 40 0 31.0457 0 20C0 8.9543 8.9543 0 20 0C31.0457 0 40 8.9543 40 20Z"/>
</mask>
<path d="M40 20C40 31.0457 31.0457 40 20 40C8.9543 40 0 31.0457 0 20C0 8.9543 8.9543 0 20 0C31.0457 0 40 8.9543 40 20Z" fill="#F4F7FA"/>
<path d="M39.6 20C39.6 30.8248 30.8248 39.6 20 39.6V40.4C31.2666 40.4 40.4 31.2666 40.4 20H39.6ZM20 39.6C9.17522 39.6 0.4 30.8248 0.4 20H-0.4C-0.4 31.2666 8.73339 40.4 20 40.4V39.6ZM0.4 20C0.4 9.17522 9.17522 0.4 20 0.4V-0.4C8.73339 -0.4 -0.4 8.73339 -0.4 20H0.4ZM20 0.4C30.8248 0.4 39.6 9.17522 39.6 20H40.4C40.4 8.73339 31.2666 -0.4 20 -0.4V0.4Z" fill="black" mask="url(#path-1-inside-1_0_519)"/>
<g clip-path="url(#clip0_0_519)">
<path d="M25.1994 22.7151L25.1995 22.7152C25.6065 23.02 25.6891 23.5971 25.3837 24.0028L25.3829 24.0038C25.203 24.2461 24.9278 24.3725 24.6458 24.3725C24.4534 24.3725 24.2604 24.3128 24.0945 24.1883L24.0945 24.1883L19.6117 20.8262L19.6113 20.8259C19.3799 20.6533 19.2435 20.38 19.2435 20.0897V13.3655C19.2435 12.8562 19.6549 12.4448 20.1642 12.4448C20.6735 12.4448 21.0849 12.8562 21.0849 13.3655V19.5293V19.6293L21.1649 19.6893L25.1994 22.7151Z" fill="#F4F7FA" stroke="black" stroke-width="0.4"/>
<path d="M5.89617 20C5.89617 12.1323 12.2965 5.73192 20.1643 5.73192C28.032 5.73192 34.4323 12.1323 34.4323 20C34.4323 27.8677 28.032 34.2681 20.1643 34.2681C12.2965 34.2681 5.89617 27.8677 5.89617 20ZM7.73753 20C7.73753 26.8514 13.3129 32.4267 20.1643 32.4267C27.0156 32.4267 32.591 26.8514 32.591 20C32.591 13.1486 27.0168 7.57329 20.1643 7.57329C13.3129 7.57329 7.73753 13.1486 7.73753 20Z" fill="#F4F7FA" stroke="black" stroke-width="0.4"/>
</g>
<defs>
<clipPath id="clip0_0_519">
<rect x="5.69617" y="5.53192" width="28.9362" height="28.9362" fill="white"/>
</clipPath>
</defs>
</svg>
