<svg width="18" height="28" viewBox="0 0 18 28" fill="none" xmlns="http://www.w3.org/2000/svg">
<mask id="path-1-inside-1_0_530" fill="white">
<path fill-rule="evenodd" clip-rule="evenodd" d="M0.774693 0.301929C5.99867 1.62446 9.91678 7.13573 9.91678 13.7337C9.91678 20.3317 5.99872 25.8429 0.77479 27.1655C1.70272 27.3633 2.66533 27.4674 3.65227 27.4674C11.2372 27.4674 17.386 21.3186 17.386 13.7337C17.386 6.14877 11.2372 -2.28882e-05 3.65227 -2.28882e-05C2.6653 -2.28882e-05 1.70265 0.10409 0.774693 0.301929Z"/>
</mask>
<path fill-rule="evenodd" clip-rule="evenodd" d="M0.774693 0.301929C5.99867 1.62446 9.91678 7.13573 9.91678 13.7337C9.91678 20.3317 5.99872 25.8429 0.77479 27.1655C1.70272 27.3633 2.66533 27.4674 3.65227 27.4674C11.2372 27.4674 17.386 21.3186 17.386 13.7337C17.386 6.14877 11.2372 -2.28882e-05 3.65227 -2.28882e-05C2.6653 -2.28882e-05 1.70265 0.10409 0.774693 0.301929Z" fill="#7247FF"/>
<path fill-rule="evenodd" clip-rule="evenodd" d="M0.774693 0.301929C5.99867 1.62446 9.91678 7.13573 9.91678 13.7337C9.91678 20.3317 5.99872 25.8429 0.77479 27.1655C1.70272 27.3633 2.66533 27.4674 3.65227 27.4674C11.2372 27.4674 17.386 21.3186 17.386 13.7337C17.386 6.14877 11.2372 -2.28882e-05 3.65227 -2.28882e-05C2.6653 -2.28882e-05 1.70265 0.10409 0.774693 0.301929Z" fill="url(#paint0_linear_0_530)"/>
<path d="M0.774693 0.301929L0.712139 0.00852394L0.701065 0.592754L0.774693 0.301929ZM0.77479 27.1655L0.70116 26.8747L0.712238 27.4589L0.77479 27.1655ZM0.701065 0.592754C5.76458 1.87466 9.61678 7.24268 9.61678 13.7337H10.2168C10.2168 7.02878 6.23276 1.37426 0.84832 0.0111046L0.701065 0.592754ZM9.61678 13.7337C9.61678 20.2247 5.76462 25.5927 0.70116 26.8747L0.848419 27.4563C6.23281 26.0931 10.2168 20.4386 10.2168 13.7337H9.61678ZM3.65227 27.1674C2.68648 27.1674 1.74483 27.0655 0.837341 26.8721L0.712238 27.4589C1.6606 27.6611 2.64418 27.7674 3.65227 27.7674V27.1674ZM17.086 13.7337C17.086 21.1529 11.0715 27.1674 3.65227 27.1674V27.7674C11.4029 27.7674 17.686 21.4843 17.686 13.7337H17.086ZM3.65227 0.299976C11.0715 0.299976 17.086 6.31446 17.086 13.7337H17.686C17.686 5.98309 11.4029 -0.300022 3.65227 -0.300022V0.299976ZM0.837246 0.595335C1.74477 0.401852 2.68645 0.299976 3.65227 0.299976V-0.300022C2.64414 -0.300022 1.66053 -0.193672 0.712139 0.00852394L0.837246 0.595335Z" fill="black" mask="url(#path-1-inside-1_0_530)"/>
<defs>
<linearGradient id="paint0_linear_0_530" x1="9.08034" y1="27.4674" x2="9.08034" y2="-2.28882e-05" gradientUnits="userSpaceOnUse">
<stop stop-color="#4614E8"/>
<stop offset="1" stop-color="#BCA7FF"/>
</linearGradient>
</defs>
</svg>
