<svg width="77" height="37" viewBox="0 0 77 37" fill="none" xmlns="http://www.w3.org/2000/svg">
<path d="M75.8885 36.6118H0.236753C0.173962 36.6118 0.113744 36.587 0.0693447 36.5428C0.0249449 36.4985 2.91168e-06 36.4386 0 36.376V0.266161C0 0.20363 0.0249401 0.143658 0.0693405 0.0994418C0.113741 0.0552252 0.173961 0.0303841 0.236753 0.0303841C0.299544 0.0303841 0.359765 0.0552252 0.404165 0.0994418C0.448565 0.143658 0.47351 0.20363 0.47351 0.266161V36.1403H75.8885C75.9197 36.1402 75.9506 36.1462 75.9794 36.158C76.0082 36.1698 76.0344 36.1871 76.0565 36.209C76.0786 36.2309 76.0961 36.257 76.108 36.2856C76.12 36.3143 76.1261 36.345 76.1261 36.376C76.1261 36.4071 76.12 36.4378 76.108 36.4665C76.0961 36.4951 76.0786 36.5211 76.0565 36.543C76.0344 36.5649 76.0082 36.5823 75.9794 36.5941C75.9506 36.6059 75.9197 36.6119 75.8885 36.6118Z" fill="#3F3D56"/>
<path d="M16.4003 34.0184H9.51952C9.33319 34.0182 9.15456 33.9444 9.0228 33.8132C8.89104 33.682 8.81693 33.5041 8.8167 33.3186V23.8726C8.81693 23.687 8.89104 23.5091 9.0228 23.3779C9.15456 23.2467 9.33319 23.1729 9.51952 23.1727H16.4003C16.5867 23.1729 16.7653 23.2467 16.897 23.3779C17.0288 23.5091 17.1029 23.687 17.1031 23.8726V33.3186C17.1029 33.5041 17.0288 33.682 16.897 33.8132C16.7653 33.9444 16.5867 34.0182 16.4003 34.0184Z" fill="url(#paint0_linear_12813_36)"/>
<path d="M28.9484 34.0184H22.0676C21.8812 34.0182 21.7026 33.9443 21.5708 33.8131C21.4391 33.6819 21.365 33.5041 21.3647 33.3185V14.913C21.365 14.7275 21.4391 14.5496 21.5708 14.4184C21.7026 14.2872 21.8812 14.2134 22.0676 14.2132H28.9484C29.1347 14.2134 29.3133 14.2872 29.4451 14.4184C29.5768 14.5496 29.651 14.7275 29.6512 14.913V33.3185C29.651 33.5041 29.5768 33.6819 29.4451 33.8131C29.3133 33.9443 29.1347 34.0182 28.9484 34.0184Z" fill="url(#paint1_linear_12813_36)"/>
<path d="M41.4964 34.0184H34.6156C34.4292 34.0182 34.2506 33.9444 34.1189 33.8132C33.9871 33.682 33.913 33.5041 33.9128 33.3186V23.8726C33.913 23.687 33.9871 23.5091 34.1189 23.3779C34.2506 23.2467 34.4292 23.1729 34.6156 23.1727H41.4964C41.6827 23.1729 41.8613 23.2467 41.9931 23.3779C42.1249 23.5091 42.199 23.687 42.1992 23.8726V33.3186C42.199 33.5041 42.1249 33.682 41.9931 33.8132C41.8613 33.9444 41.6827 34.0182 41.4964 34.0184Z" fill="url(#paint2_linear_12813_36)"/>
<path d="M54.0445 34.0184H47.1636C46.9816 34.0223 46.8054 33.9542 46.6736 33.8289C46.5419 33.7037 46.4654 33.5316 46.4608 33.3503V11.3447C46.4654 11.1634 46.5419 10.9913 46.6736 10.866C46.8054 10.7408 46.9816 10.6727 47.1636 10.6766H54.0445C54.2265 10.6727 54.4027 10.7408 54.5345 10.866C54.6662 10.9913 54.7427 11.1634 54.7473 11.3447V33.3503C54.7427 33.5316 54.6662 33.7037 54.5345 33.8289C54.4027 33.9542 54.2265 34.0223 54.0445 34.0184Z" fill="url(#paint3_linear_12813_36)"/>
<path d="M66.5925 34.0184H59.7117C59.5254 34.0181 59.3467 33.9443 59.215 33.8131C59.0832 33.6819 59.0091 33.5041 59.0089 33.3185V5.01043C59.0091 4.82487 59.0832 4.64698 59.215 4.51578C59.3467 4.38458 59.5254 4.31079 59.7117 4.31058H66.5925C66.7788 4.31079 66.9575 4.38458 67.0892 4.51578C67.221 4.64698 67.2951 4.82487 67.2953 5.01043V33.3185C67.2951 33.5041 67.221 33.6819 67.0892 33.8131C66.9575 33.9443 66.7788 34.0181 66.5925 34.0184Z" fill="url(#paint4_linear_12813_36)"/>
<path d="M38.0858 19.2456L25.508 9.86364L13.1018 19.1174L12.8179 18.74L25.508 9.27431L38.026 18.6118L50.4657 5.05523L50.5156 5.03501L63.0635 0L63.2405 0.437624L50.7424 5.4524L38.0858 19.2456Z" fill="#3F3D56"/>
<defs>
<linearGradient id="paint0_linear_12813_36" x1="14.214" y1="-0.0266207" x2="42.4701" y2="53.3415" gradientUnits="userSpaceOnUse">
<stop stop-color="#4614E8"/>
<stop offset="1" stop-color="#BCA7FF"/>
</linearGradient>
<linearGradient id="paint1_linear_12813_36" x1="14.214" y1="-0.0266207" x2="42.4701" y2="53.3415" gradientUnits="userSpaceOnUse">
<stop stop-color="#4614E8"/>
<stop offset="1" stop-color="#BCA7FF"/>
</linearGradient>
<linearGradient id="paint2_linear_12813_36" x1="14.214" y1="-0.0266207" x2="42.4701" y2="53.3415" gradientUnits="userSpaceOnUse">
<stop stop-color="#4614E8"/>
<stop offset="1" stop-color="#BCA7FF"/>
</linearGradient>
<linearGradient id="paint3_linear_12813_36" x1="14.214" y1="-0.0266207" x2="42.4701" y2="53.3415" gradientUnits="userSpaceOnUse">
<stop stop-color="#4614E8"/>
<stop offset="1" stop-color="#BCA7FF"/>
</linearGradient>
<linearGradient id="paint4_linear_12813_36" x1="14.214" y1="-0.0266207" x2="42.4701" y2="53.3415" gradientUnits="userSpaceOnUse">
<stop stop-color="#4614E8"/>
<stop offset="1" stop-color="#BCA7FF"/>
</linearGradient>
</defs>
</svg>
